# xmcd
#
# Track frame offsets:
#	150
#	14465
#	27755
#	42288
#	52380
#	65333
#	78020
#	88755
#	99488
#	111480
#	123030
#	135933
#	146755
#	157033
#	167508
#	181315
#	192045
#
# Disc length: 2726 seconds
#
# Revision: 6
# Processed by: cddbd v1.5.2PL0 Copyright (c) Steve Scherf et al.
# Submitted via: audiograbber 1.83.01
#
DISCID=dd0aa411
DTITLE=Various Artist - Oldies But Goodies - Volume 1
DYEAR=1900
DGENRE=Oldies
TTITLE0=Moonglows - Sincerely
TTITLE1=Penguins - Earth Angel
TTITLE2=Teen Queens - Eddie My Love
TTITLE3=Johnnie and Joe - Over The Mountain, Across The Sea
TTITLE4=Don Julian and The Meadowlarks - Heaven And Paradise
TTITLE5=Medallions - The Letter
TTITLE6=Jaguars - The Way You Look Tonight
TTITLE7=Santo and Johnny - Sleepwalk
TTITLE8=Paul Anka - Put Your Head On My Shoulder
TTITLE9=Sonny Knight - Confidential
TTITLE10=Jimmy Reed - Big Boss Man
TTITLE11=Shirley and Lee - Let The Good Times Roll
TTITLE12=Buddy Holly and The Crickets - That'll Be The Day
TTITLE13=Chuck Berry - Maybellene
TTITLE14=Cadets - Stranded In The Jungle
TTITLE15=Lloyd Price - Stagger Lee
TTITLE16=Etta James - Dance With Me Henry (Wallflower)
EXTD=ID3G: 78
EXTT0=
EXTT1=
EXTT2=
EXTT3=
EXTT4=
EXTT5=
EXTT6=
EXTT7=
EXTT8=
EXTT9=
EXTT10=
EXTT11=
EXTT12=
EXTT13=
EXTT14=
EXTT15=
EXTT16=
PLAYORDER=
